<?xml version="1.0" standalone="no"?><!DOCTYPE svg PUBLIC "-//W3C//DTD SVG 1.1//EN" "http://www.w3.org/Graphics/SVG/1.1/DTD/svg11.dtd"><svg t="1695459592644" class="icon" viewBox="0 0 1024 1024" version="1.1" xmlns="http://www.w3.org/2000/svg" p-id="11533" xmlns:xlink="http://www.w3.org/1999/xlink" width="200" height="200"><path d="M525.653333 153.6c-9.386667 5.973333-17.066667 15.36-21.333333 26.453333-4.266667 14.506667-3.413333 29.013333 1.706667 42.666667 4.266667 14.506667 13.653333 27.306667 25.6 36.693333 5.973333 4.266667 12.8 6.826667 20.48 7.68 7.68 0.853333 15.36 0 22.186666-3.413333 7.68-4.266667 14.506667-11.093333 17.92-19.626667 3.413333-8.533333 5.973333-17.066667 5.973334-26.453333 0.853333-11.946667-0.853333-23.04-4.266667-34.133333-4.266667-11.946667-11.946667-22.186667-22.186667-29.866667-5.12-3.413333-11.093333-5.973333-17.92-6.826667-5.973333-0.853333-12.8 0-18.773333 1.706667-3.413333 1.706667-6.826667 3.413333-9.386667 5.12" fill="#FFFFFF" p-id="11534"></path><path d="M850.773333 619.52c-5.973333-32.426667-14.506667-64-27.306666-93.866667-8.533333-22.186667-19.626667-44.373333-33.28-64-14.506667-18.773333-32.426667-34.986667-46.08-53.76-7.68-10.24-13.653333-21.333333-21.333334-30.72-3.413333-5.973333-5.973333-12.8-9.386666-18.773333-9.386667-19.626667-17.066667-40.106667-28.16-59.733333-1.706667-2.56-3.413333-5.973333-5.12-8.533334-1.706667-17.92-3.413333-36.693333-4.266667-54.613333 0.853333-36.693333-2.56-73.386667-9.386667-109.226667-5.12-17.066667-11.946667-34.133333-21.333333-48.64-11.093333-17.92-25.6-33.28-42.666667-46.08-27.306667-19.626667-60.586667-29.866667-93.866666-29.866666-24.746667-1.706667-48.64 4.266667-70.826667 15.36-23.04 12.8-41.813333 32.426667-53.76 55.466666-11.093333 23.893333-17.066667 49.493333-17.066667 75.946667-0.853333 25.6 1.706667 51.2 2.56 76.8 0.853333 26.453333 0.853333 53.76 2.56 80.213333 0.853333 8.533333 1.706667 17.066667 1.706667 25.6v13.653334c-11.946667 19.626667-24.746667 38.4-38.4 57.173333-9.386667 12.8-19.626667 24.746667-29.866667 36.693333C292.693333 453.12 281.6 469.333333 273.066667 486.4c-5.973333 15.36-10.24 30.72-14.506667 46.08v0.853333c-5.12 17.92-11.946667 35.84-20.48 52.906667l-2.56 5.12c-5.12 10.24-10.24 20.48-15.36 29.866667l-5.973333 11.946666c-4.266667 6.826667-7.68 14.506667-10.24 21.333334-1.706667 4.266667-3.413333 9.386667-4.266667 13.653333-1.706667 10.24-0.853333 19.626667 1.706667 29.866667 0.853333 2.56 1.706667 5.12 2.56 6.826666 2.56 6.826667 5.12 13.653333 9.386666 20.48 1.706667 3.413333 3.413333 5.973333 5.12 9.386667l1.706667 2.56c1.706667 2.56 3.413333 5.973333 5.12 8.533333 1.706667 3.413333 4.266667 5.973333 5.973333 9.386667v0.853333c2.56 2.56 4.266667 5.973333 6.826667 9.386667 8.533333 33.28 23.893333 64 45.226667 90.453333-3.413333 5.973333-5.973333 11.946667-9.386667 17.066667-11.946667 17.066667-21.333333 34.986667-29.013333 53.76-3.413333 9.386667-4.266667 20.48-2.56 30.72 1.706667 10.24 6.826667 19.626667 14.506666 26.453333 5.12 4.266667 11.093333 6.826667 17.92 8.533334 6.826667 1.706667 12.8 1.706667 19.626667 1.706666 25.6-1.706667 50.346667-6.826667 74.24-14.506666 14.506667-4.266667 29.013333-7.68 44.373333-10.24 15.36-3.413333 30.72-5.973333 46.933334-5.973334h11.093333c11.093333 0.853333 21.333333 1.706667 32.426667 0.853334h4.266666c2.56 0 5.973333 0.853333 8.533334 0.853333 18.773333 0.853333 37.546667 2.56 56.32 5.973333 16.213333 2.56 32.426667 5.973333 48.64 9.386667 24.746667 7.68 50.346667 12.8 76.8 14.506667 6.826667 0 13.653333 0 20.48-1.706667 6.826667-1.706667 12.8-4.266667 18.773333-8.533333 7.68-6.826667 12.8-16.213333 14.506667-26.453334 1.706667-10.24 0.853333-20.48-2.56-30.72-7.68-18.773333-17.066667-37.546667-29.013334-53.76-4.266667-6.826667-7.68-14.506667-11.946666-21.333333 17.92-19.626667 33.28-41.813333 46.08-64.853333 7.68 0.853333 16.213333-0.853333 23.893333-2.56 19.626667-6.826667 37.546667-19.626667 49.493333-36.693334 3.413333-5.12 6.826667-11.093333 8.533334-17.066666 7.68-11.946667 12.8-25.6 15.36-40.106667 4.266667-23.893333 3.413333-48.64-0.853334-71.68z m0 0" fill="#020204" p-id="11535"></path><path d="M412.16 296.106667c-3.413333 4.266667-5.973333 10.24-7.68 15.36-0.853333 5.973333-1.706667 11.093333-2.56 17.066666 0 11.946667-0.853333 23.04-2.56 34.133334-4.266667 11.946667-10.24 22.186667-17.92 32.426666-13.653333 17.066667-23.893333 35.84-30.72 55.466667-3.413333 12.8-5.12 25.6-3.413333 38.4-13.653333 20.48-25.6 41.813333-35.84 64.853333-15.36 34.133333-24.746667 70.826667-29.013334 107.52-5.12 46.08 1.706667 92.16 19.626667 134.826667 12.8 30.72 32.426667 58.026667 57.173333 80.213333 12.8 11.093333 26.453333 20.48 41.813334 28.16 52.906667 25.6 115.2 25.6 168.106666-1.706666 26.453333-15.36 50.346667-34.133333 71.68-56.32 13.653333-11.946667 25.6-26.453333 35.84-40.96 17.92-30.72 28.16-64.853333 29.866667-100.693334 11.093333-61.44 4.266667-124.586667-19.626667-181.76-9.386667-18.773333-21.333333-36.693333-35.84-52.053333-3.413333-27.306667-11.093333-52.906667-22.186666-77.653333-8.533333-17.92-17.92-34.986667-25.6-52.906667-3.413333-7.68-5.973333-15.36-9.386667-22.186667-3.413333-7.68-7.68-13.653333-13.653333-19.626666-5.973333-5.973333-12.8-9.386667-21.333334-11.946667-7.68-2.56-16.213333-4.266667-23.893333-4.266667-16.213333-0.853333-33.28 0.853333-49.493333 0.853334-12.8-0.853333-25.6-2.56-39.253334-1.706667-6.826667 0-12.8 1.706667-18.773333 4.266667-5.973333 1.706667-11.093333 5.12-15.36 10.24m5.12-142.506667c-5.973333 0.853333-11.946667 3.413333-16.213333 7.68s-7.68 9.386667-9.386667 15.36c-3.413333 11.946667-4.266667 23.893333-2.56 36.693333 0 11.093333 2.56 22.186667 5.973333 32.426667 1.706667 5.12 5.12 10.24 8.533334 13.653333 4.266667 4.266667 8.533333 6.826667 14.506666 8.533334 5.12 0.853333 10.24 0.853333 15.36-0.853334 5.12-1.706667 9.386667-4.266667 12.8-7.68 5.12-5.12 9.386667-11.946667 11.093334-19.626666 1.706667-7.68 2.56-15.36 2.56-22.186667 0-9.386667-1.706667-18.773333-4.266667-28.16-2.56-9.386667-7.68-17.066667-14.506667-24.746667-3.413333-3.413333-6.826667-5.973333-11.093333-8.533333-3.413333-1.706667-7.68-2.56-12.8-2.56m108.373333 0c-9.386667 5.973333-17.066667 15.36-21.333333 26.453333-4.266667 14.506667-3.413333 29.013333 1.706667 42.666667 4.266667 14.506667 13.653333 27.306667 25.6 36.693333 5.973333 4.266667 12.8 6.826667 20.48 7.68 7.68 0.853333 15.36 0 22.186666-3.413333 7.68-4.266667 14.506667-11.093333 17.92-19.626667 3.413333-8.533333 5.973333-17.066667 5.973334-26.453333 0.853333-11.946667-0.853333-23.04-4.266667-34.133333-4.266667-11.946667-11.946667-22.186667-22.186667-29.866667-5.12-3.413333-11.093333-5.973333-17.92-6.826667-5.973333-0.853333-12.8 0-18.773333 1.706667-3.413333 1.706667-6.826667 3.413333-9.386667 5.12" fill="#FFFFFF" p-id="11536"></path><path d="M547.84 182.613333c-3.413333 0-6.826667 1.706667-10.24 3.413334-3.413333 1.706667-5.973333 4.266667-7.68 7.68-4.266667 5.973333-5.973333 12.8-5.973333 20.48 0 5.12 0.853333 11.093333 2.56 16.213333 1.706667 5.12 5.12 9.386667 9.386666 12.8 4.266667 3.413333 9.386667 5.973333 15.36 5.973333s11.093333-0.853333 15.36-4.266666c3.413333-2.56 6.826667-5.973333 8.533334-10.24 1.706667-4.266667 3.413333-8.533333 4.266666-12.8 0.853333-7.68 0-15.36-3.413333-23.04-3.413333-6.826667-9.386667-12.8-17.066667-15.36-4.266667-0.853333-7.68-1.706667-11.093333-0.853334" fill="#020204" p-id="11537"></path><path d="M417.28 153.6c-5.973333 0.853333-11.946667 3.413333-16.213333 7.68s-7.68 9.386667-9.386667 15.36c-3.413333 11.946667-4.266667 23.893333-2.56 36.693333 0 11.093333 2.56 22.186667 5.973333 32.426667 1.706667 5.12 5.12 10.24 8.533334 13.653333 4.266667 4.266667 8.533333 6.826667 14.506666 8.533334 5.12 0.853333 10.24 0.853333 15.36-0.853334 5.12-1.706667 9.386667-4.266667 12.8-7.68 5.12-5.12 9.386667-11.946667 11.093334-19.626666 1.706667-7.68 2.56-15.36 2.56-22.186667 0-9.386667-1.706667-18.773333-4.266667-28.16-2.56-9.386667-7.68-17.066667-14.506667-24.746667-3.413333-3.413333-6.826667-5.973333-11.093333-8.533333-3.413333-1.706667-7.68-2.56-12.8-2.56" fill="#FFFFFF" p-id="11538"></path><path d="M402.773333 203.946667c-1.706667 7.68-0.853333 15.36 0.853334 23.04 1.706667 5.12 4.266667 9.386667 8.533333 12.8 2.56 2.56 5.12 4.266667 7.68 5.973333 3.413333 1.706667 6.826667 1.706667 10.24 0.853333 3.413333-0.853333 5.973333-2.56 7.68-5.12 1.706667-2.56 3.413333-5.12 4.266667-8.533333 2.56-8.533333 2.56-18.773333-0.853334-27.306667-1.706667-6.826667-5.12-12.8-10.24-17.066666-2.56-1.706667-5.12-3.413333-8.533333-4.266667-3.413333-0.853333-6.826667-0.853333-9.386667 0.853333-3.413333 1.706667-5.973333 4.266667-7.68 7.68-0.853333 4.266667-2.56 7.68-2.56 11.093334" fill="#020204" p-id="11539"></path><path d="M388.266667 300.373333c0 0.853333 0.853333 1.706667 0.853333 2.56 0.853333 1.706667 2.56 2.56 4.266667 4.266667 1.706667 0.853333 2.56 1.706667 4.266666 2.56 7.68 5.12 14.506667 11.946667 20.48 19.626667 6.826667 11.093333 15.36 20.48 24.746667 28.16 7.68 5.12 16.213333 8.533333 24.746667 9.386666 10.24 0.853333 21.333333-0.853333 31.573333-3.413333 9.386667-2.56 17.92-6.826667 26.453333-11.946667 14.506667-11.946667 29.866667-22.186667 46.08-30.72 4.266667-1.706667 7.68-2.56 11.093334-4.266666s6.826667-4.266667 8.533333-7.68c0.853333-3.413333 1.706667-7.68 2.56-11.093334 0.853333-4.266667 1.706667-8.533333 2.56-11.946666 0.853333-4.266667 0.853333-8.533333-0.853333-11.946667-1.706667-3.413333-4.266667-5.973333-6.826667-6.826667-3.413333-1.706667-6.826667-2.56-10.24-2.56-6.826667 0-13.653333 0.853333-20.48 1.706667-9.386667 0.853333-17.92 0-27.306667 0-11.093333 0-22.186667 2.56-34.133333 3.413333-12.8 0.853333-25.6-1.706667-39.253333-1.706666-5.973333 0-11.093333 0-17.066667 0.853333s-11.093333 2.56-15.36 5.973333c-4.266667 3.413333-8.533333 6.826667-11.946667 11.093334-1.706667 1.706667-4.266667 3.413333-6.826666 4.266666-2.56 0.853333-5.12 1.706667-7.68 1.706667h-4.266667c-0.853333 0-1.706667 0.853333-2.56 1.706667l-1.706667 1.706666c0.853333 0.853333-0.853333 3.413333-1.706666 5.12" fill="#D99A03" p-id="11540"></path><path d="M417.28 271.36c-4.266667 2.56-9.386667 5.973333-13.653333 8.533333-2.56 1.706667-4.266667 3.413333-5.973334 5.973334-0.853333 1.706667-0.853333 3.413333-0.853333 5.973333v5.973333c0 0.853333-0.853333 2.56-0.853333 4.266667v1.706667c0 0.853333 0.853333 0.853333 0.853333 1.706666 0.853333 0.853333 1.706667 0.853333 2.56 0.853334 0.853333 0 1.706667 0 2.56 0.853333 4.266667 0.853333 7.68 3.413333 10.24 5.973333 3.413333 2.56 5.973333 5.973333 9.386667 8.533334 9.386667 6.826667 20.48 10.24 31.573333 10.24 11.093333 0 22.186667-1.706667 33.28-4.266667 8.533333-1.706667 17.066667-4.266667 25.6-6.826667 12.8-5.12 24.746667-11.946667 34.986667-20.48 4.266667-4.266667 9.386667-8.533333 14.506666-11.946666 4.266667-2.56 10.24-5.12 14.506667-7.68 0.853333 0 0.853333-0.853333 0.853333-0.853334l0.853334-0.853333v-2.56c0-0.853333-0.853333-1.706667-0.853334-1.706667-0.853333-0.853333-0.853333-1.706667-1.706666-1.706666-5.12-4.266667-11.093333-5.973333-17.92-5.973334-6.826667-0.853333-12.8 0-19.626667-0.853333-5.973333-0.853333-11.946667-2.56-17.066667-5.12-5.973333-1.706667-11.946667-3.413333-18.773333-4.266667-14.506667-2.56-29.866667-1.706667-44.373333 0.853334-14.506667 1.706667-28.16 6.826667-40.106667 13.653333" fill="#604405" p-id="11541"></path><path d="M415.573333 256c-6.826667 4.266667-12.8 10.24-17.92 16.213333-2.56 3.413333-5.12 7.68-6.826666 11.946667l-2.56 10.24c0 0.853333-0.853333 2.56-0.853334 4.266667v1.706666c0 0.853333 0.853333 0.853333 0.853334 1.706667 0.853333 0.853333 1.706667 0.853333 2.56 1.706667h3.413333c5.12 0.853333 9.386667 2.56 13.653333 5.973333 4.266667 2.56 7.68 5.973333 11.946667 8.533333 9.386667 5.973333 20.48 8.533333 31.573333 9.386667 11.093333 0 22.186667-0.853333 33.28-3.413333 8.533333-1.706667 17.066667-4.266667 25.6-6.826667 12.8-5.12 23.893333-11.946667 34.986667-20.48 5.12-3.413333 9.386667-7.68 14.506667-11.946667l4.266666-4.266666c1.706667-1.706667 3.413333-2.56 5.12-3.413334 3.413333-0.853333 5.973333-0.853333 9.386667 0 2.56 0.853333 4.266667 0.853333 6.826667 0.853334 0.853333 0 2.56 0 3.413333-0.853334 0.853333-0.853333 2.56-0.853333 2.56-1.706666 0.853333-0.853333 1.706667-2.56 1.706667-4.266667s-0.853333-3.413333-0.853334-4.266667c-1.706667-2.56-4.266667-4.266667-6.826666-5.973333-4.266667-1.706667-7.68-2.56-11.946667-3.413333-12.8-3.413333-25.6-7.68-37.546667-13.653334-5.973333-2.56-11.093333-5.973333-17.066666-9.386666-5.973333-3.413333-11.946667-5.973333-18.773334-8.533334-14.506667-4.266667-30.72-3.413333-44.373333 1.706667-15.36 5.973333-29.866667 15.36-40.106667 28.16" fill="#F5BD0C" p-id="11542"></path><path d="M489.813333 238.08c0.853333 2.56 5.12 2.56 7.68 3.413333 2.56 0.853333 3.413333 3.413333 5.973334 3.413334 2.56 0 5.973333-0.853333 5.973333-2.56 0.853333-2.56-4.266667-5.12-6.826667-5.973334-3.413333-1.706667-7.68-1.706667-11.093333 0-1.706667 0-2.56 0.853333-1.706667 1.706667z m-39.253333-1.706667c-3.413333-0.853333-7.68 4.266667-6.826667 6.826667 0.853333 0.853333 1.706667 1.706667 2.56 0.853333 0.853333-0.853333 2.56-3.413333 4.266667-4.266666 0.853333 0 0.853333-2.56 0-3.413334z m0 0" fill="#CD8907" p-id="11543"></path><path d="M938.666667 873.813333c-2.56 5.973333-5.973333 11.093333-9.386667 16.213334-9.386667 10.24-21.333333 18.773333-34.133333 23.893333-21.333333 10.24-42.666667 21.333333-63.146667 33.28-13.653333 8.533333-25.6 18.773333-37.546667 29.866667-9.386667 10.24-19.626667 18.773333-30.72 27.306666-11.093333 8.533333-23.893333 13.653333-37.546666 16.213334-17.066667 2.56-34.133333-0.853333-49.493334-7.68-11.093333-4.266667-20.48-11.946667-27.306666-21.333334-5.973333-10.24-8.533333-22.186667-7.68-34.133333 0.853333-20.48 3.413333-41.813333 7.68-62.293333 2.56-17.066667 5.973333-34.133333 7.68-51.2 3.413333-31.573333 3.413333-63.146667 0.853333-94.72-0.853333-5.12-0.853333-10.24 0-16.213334 0.853333-11.093333 9.386667-18.773333 20.48-18.773333 5.12 0 9.386667 0 14.506667 0.853333 11.093333 1.706667 23.04 3.413333 34.133333 5.973334 6.826667 1.706667 13.653333 4.266667 20.48 5.973333 11.946667 3.413333 23.893333 4.266667 35.84 3.413333 12.8-2.56 25.6-5.12 38.4-5.973333 5.12 0 11.093333 0.853333 15.36 2.56 5.12 1.706667 10.24 4.266667 14.506667 7.68 2.56 3.413333 5.12 6.826667 6.826666 10.24 2.56 5.973333 3.413333 11.946667 4.266667 17.92 0 5.12 0.853333 11.093333 1.706667 16.213333 1.706667 8.533333 5.973333 17.066667 11.946666 23.893334 5.973333 6.826667 12.8 12.8 19.626667 17.92 6.826667 5.973333 13.653333 11.093333 21.333333 16.213333 3.413333 2.56 6.826667 4.266667 10.24 6.826667 3.413333 2.56 5.973333 5.973333 8.533334 9.386666 3.413333 9.386667 4.266667 14.506667 2.56 20.48" fill="#F5BD0C" p-id="11544"></path><path d="M938.666667 873.813333c-2.56 5.973333-5.973333 11.093333-9.386667 16.213334-9.386667 10.24-21.333333 18.773333-34.133333 23.893333-21.333333 10.24-42.666667 21.333333-63.146667 33.28-13.653333 8.533333-25.6 18.773333-37.546667 29.866667-9.386667 10.24-19.626667 18.773333-30.72 27.306666-11.093333 8.533333-23.893333 13.653333-37.546666 16.213334-17.066667 2.56-34.133333-0.853333-49.493334-7.68-11.093333-4.266667-20.48-11.946667-27.306666-21.333334-5.973333-10.24-8.533333-22.186667-7.68-34.133333 0.853333-20.48 3.413333-41.813333 7.68-62.293333 2.56-17.066667 5.973333-34.133333 7.68-51.2 3.413333-31.573333 3.413333-63.146667 0.853333-94.72-0.853333-5.12-0.853333-10.24 0-16.213334 0.853333-11.093333 9.386667-18.773333 20.48-18.773333 5.12 0 9.386667 0 14.506667 0.853333 11.093333 1.706667 23.04 3.413333 34.133333 5.973334 6.826667 1.706667 13.653333 4.266667 20.48 5.973333 11.946667 3.413333 23.893333 4.266667 35.84 3.413333 12.8-2.56 25.6-5.12 38.4-5.973333 5.12 0 11.093333 0.853333 15.36 2.56 5.12 1.706667 10.24 4.266667 14.506667 7.68 2.56 3.413333 5.12 6.826667 6.826666 10.24 2.56 5.973333 3.413333 11.946667 4.266667 17.92 0 5.12 0.853333 11.093333 1.706667 16.213333 1.706667 8.533333 5.973333 17.066667 11.946666 23.893334 5.973333 6.826667 12.8 12.8 19.626667 17.92 6.826667 5.973333 13.653333 11.093333 21.333333 16.213333 3.413333 2.56 6.826667 4.266667 10.24 6.826667 3.413333 2.56 5.973333 5.973333 8.533334 9.386666 3.413333 9.386667 4.266667 14.506667 2.56 20.48M222.72 698.88c5.973333-2.56 11.946667-2.56 17.92-1.706667 5.973333 0.853333 11.093333 3.413333 16.213333 6.826667 9.386667 6.826667 17.92 16.213333 23.893334 25.6 16.213333 22.186667 31.573333 44.373333 45.226666 68.266667 11.093333 18.773333 21.333333 38.4 34.986667 56.32 8.533333 11.946667 17.92 22.186667 27.306667 34.133333 9.386667 11.093333 16.213333 24.746667 19.626666 38.4 5.12 18.773333 2.56 37.546667-5.973333 54.613333-5.973333 11.946667-15.36 22.186667-26.453333 29.013334-11.093333 6.826667-24.746667 10.24-37.546667 10.24-21.333333-2.56-40.96-9.386667-59.733333-18.773334-40.106667-16.213333-82.773333-20.48-123.733334-33.28-12.8-3.413333-24.746667-8.533333-37.546666-11.946666-5.973333-1.706667-11.093333-3.413333-17.066667-5.12-5.12-2.56-10.24-5.973333-12.8-11.093334-2.56-4.266667-3.413333-8.533333-3.413333-12.8s0.853333-9.386667 2.56-12.8c3.413333-8.533333 7.68-16.213333 11.093333-24.746666 5.12-13.653333 6.826667-29.013333 5.973333-43.52-0.853333-14.506667-3.413333-29.013333-4.266666-44.373334-0.853333-6.826667-0.853333-13.653333 0.853333-19.626666 1.706667-12.8 11.946667-23.04 24.746667-25.6 5.973333-0.853333 11.946667-1.706667 17.92-0.853334h17.92c5.973333 0 11.946667-1.706667 17.066666-5.12 5.12-2.56 9.386667-6.826667 12.8-11.946666 3.413333-5.12 5.973333-9.386667 9.386667-14.506667 2.56-5.12 5.973333-10.24 9.386667-14.506667 3.413333-5.12 8.533333-8.533333 13.653333-11.093333" fill="#F5BD0C" p-id="11545"></path><path d="M222.72 698.88c5.973333-2.56 11.946667-2.56 17.92-1.706667 5.973333 0.853333 11.093333 3.413333 16.213333 6.826667 9.386667 6.826667 17.92 16.213333 23.893334 25.6 16.213333 22.186667 31.573333 44.373333 45.226666 68.266667 11.093333 18.773333 21.333333 38.4 34.986667 56.32 8.533333 11.946667 17.92 22.186667 27.306667 34.133333 9.386667 11.093333 16.213333 24.746667 19.626666 38.4 5.12 18.773333 2.56 37.546667-5.973333 54.613333-5.973333 11.946667-15.36 22.186667-26.453333 29.013334-11.093333 6.826667-24.746667 10.24-37.546667 10.24-21.333333-2.56-40.96-9.386667-59.733333-18.773334-40.106667-16.213333-82.773333-20.48-123.733334-33.28-12.8-3.413333-24.746667-8.533333-37.546666-11.946666-5.973333-1.706667-11.093333-3.413333-17.066667-5.12-5.12-2.56-10.24-5.973333-12.8-11.093334-2.56-4.266667-3.413333-8.533333-3.413333-12.8s0.853333-9.386667 2.56-12.8c3.413333-8.533333 7.68-16.213333 11.093333-24.746666 5.12-13.653333 6.826667-29.013333 5.973333-43.52-0.853333-14.506667-3.413333-29.013333-4.266666-44.373334-0.853333-6.826667-0.853333-13.653333 0.853333-19.626666 1.706667-12.8 11.946667-23.04 24.746667-25.6 5.973333-0.853333 11.946667-1.706667 17.92-0.853334h17.92c5.973333 0 11.946667-1.706667 17.066666-5.12 5.12-2.56 9.386667-6.826667 12.8-11.946666 3.413333-5.12 5.973333-9.386667 9.386667-14.506667 2.56-5.12 5.973333-10.24 9.386667-14.506667 3.413333-5.12 8.533333-8.533333 13.653333-11.093333" fill="#F5BD0C" p-id="11546"></path><path d="M231.253333 709.12c5.12-1.706667 10.24-2.56 16.213334-0.853333 5.12 0.853333 10.24 3.413333 14.506666 6.826666 7.68 6.826667 14.506667 15.36 19.626667 24.746667 13.653333 22.186667 27.306667 44.373333 39.253333 67.413333 9.386667 17.066667 18.773333 34.133333 30.72 50.346667 7.68 10.24 16.213333 20.48 24.746667 30.72 8.533333 10.24 14.506667 21.333333 18.773333 34.133333 4.266667 16.213333 2.56 34.133333-5.12 48.64-5.973333 11.093333-14.506667 19.626667-24.746666 25.6-10.24 5.973333-22.186667 9.386667-34.986667 8.533334-18.773333-2.56-37.546667-8.533333-54.613333-17.066667-34.986667-12.8-72.533333-14.506667-107.52-23.893333-12.8-3.413333-25.6-7.68-38.4-11.093334-5.973333-0.853333-11.093333-2.56-17.066667-5.12-5.12-1.706667-10.24-5.973333-13.653333-11.093333-1.706667-4.266667-3.413333-8.533333-2.56-12.8 0-4.266667 0.853333-8.533333 2.56-12.8 3.413333-7.68 7.68-15.36 11.093333-23.893333 4.266667-12.8 5.973333-25.6 4.266667-39.253334-0.853333-12.8-3.413333-26.453333-4.266667-39.253333-0.853333-5.973333 0-11.946667 0.853333-17.92 0.853333-5.973333 3.413333-11.093333 7.68-15.36 5.12-4.266667 11.093333-6.826667 17.066667-7.68 5.973333-0.853333 12.8-0.853333 18.773333 0 5.973333 0.853333 12.8 0.853333 18.773334 0.853333 12.8 0 23.893333-7.68 29.013333-18.773333 2.56-5.12 5.12-10.24 6.826667-16.213333 1.706667-5.12 4.266667-10.24 7.68-15.36 4.266667-4.266667 9.386667-7.68 14.506666-9.386667" fill="#F5BD0C" p-id="11547"></path></svg>